# xmcd
#
# Track frame offsets:
#	150
#	17580
#	32007
#	48000
#	67167
#	87687
#	100932
#	119140
#	135960
#	147840
#	165505
#
# Disc length: 2444 seconds
#
# Revision: 0
# Processed by: cddbd v1.4PL0 Copyright (c) Steve Scherf et al.
# Submitted via: audiograbber 1.82.00
#
DISCID=93098a0b
DTITLE=Garth Brooks - In Pieces (Special Edition)
DYEAR=1900
DGENRE=
TTITLE0=Standing Outside The Fire
TTITLE1=The Night I Called The Old Man Out
TTITLE2=American Honky Tonk Bar Association
TTITLE3=One Night A Day
TTITLE4=Ain't Goin' Down (Till The Sun Comes Up)
TTITLE5=Anonymous
TTITLE6=Kickin' And Screamin'
TTITLE7=The Red Strokes
TTITLE8=Callin' Baton Rouge
TTITLE9=The Night Will Only Know
TTITLE10=The Cowboy Song
EXTD=
EXTT0=
EXTT1=
EXTT2=
EXTT3=
EXTT4=
EXTT5=
EXTT6=
EXTT7=
EXTT8=
EXTT9=
EXTT10=
PLAYORDER=
